<?xml version="1.0" encoding="UTF-8" standalone="no"?>
<!-- Created by github/@arunbhardwaj -->

<svg
   width="16"
   height="17"
   viewBox="0 0 38.999866 56.642887"
   version="1.1"
   id="svg1"
   xml:space="preserve"
   xmlns="http://www.w3.org/2000/svg"
   xmlns:svg="http://www.w3.org/2000/svg"><defs
     id="defs1" /><path
     id="leethub_upload_icon"
     style="fill:#fcfcfc;fill-opacity:1;stroke:#ffffff;stroke-width:3;stroke-dasharray:none;stroke-opacity:1"
     d="m 19.775372,2.121319 -9.072314,9.072314 a 0.51539412,0.66999737 45 0 0 -0.109554,0.838192 0.49679682,0.64582142 45 0 0 0.810286,-0.125057 l 7.846033,-7.846033 v 30.608468 a 0.47397466,0.47397466 0 0 0 0.473873,0.473873 h 0.0093 a 0.51713218,0.51713218 0 0 0 0.516765,-0.517281 V 4.018877 l 7.559745,7.560262 a 0.62190211,0.49679682 45 0 0 0.793233,0.107487 0.64518265,0.51539412 45 0 0 -0.09198,-0.820621 l -8.033101,-8.033102 0.0047,-0.0047 z m 7.81141,17.001029 v 0.999939 l 5.229655,0.01189 a 3.6922154,3.6922154 0 0 1 3.683496,3.692281 v 26.633 a 3.6835681,3.6835681 0 0 1 -3.683496,3.683496 H 6.1834371 a 3.6835681,3.6835681 0 0 1 -3.683496,-3.683496 v -26.633 a 3.6835681,3.6835681 0 0 1 3.683496,-3.683496 H 11.538666 V 19.143023 H 6.3121111 a 4.8119141,4.8119141 0 0 0 -4.812109,4.812109 v 26.375651 a 4.8119141,4.8119141 0 0 0 4.812109,4.81211 H 32.687762 a 4.8119141,4.8119141 0 0 0 4.81211,-4.81211 V 23.955128 a 4.8220648,4.8220648 0 0 0 -4.81211,-4.822444 z" /></svg>
